<?xml version="1.0" standalone="no"?><!DOCTYPE svg PUBLIC "-//W3C//DTD SVG 1.1//EN" "http://www.w3.org/Graphics/SVG/1.1/DTD/svg11.dtd"><svg t="1743693946183" class="icon" viewBox="0 0 1024 1024" version="1.1" xmlns="http://www.w3.org/2000/svg" p-id="14717" width="16" height="16" xmlns:xlink="http://www.w3.org/1999/xlink"><path d="M875.7 952.3H365v-84.8h468.2V287.3C780 195.7 712.3 151 626.6 150.7h-0.8c-87.5 0-160 46.7-221.4 142.6L232.1 935.7l-81.9-22 173.9-648.6c1.1-4.1 2.8-7.9 5-11.5C406.9 129.1 506.7 65.9 625.7 65.9h1.1c120.4 0.4 216.6 64.2 286 189.7 3.5 6.3 5.3 13.3 5.3 20.5v633.8c0 23.4-19 42.4-42.4 42.4z" fill="#66B2F6" p-id="14718"></path><path d="M615.3 362.8m-42.4 0a42.4 42.4 0 1 0 84.8 0 42.4 42.4 0 1 0-84.8 0Z" fill="#7EDBFE" p-id="14719"></path><path d="M275.9 320.4c-70.2 0-127.2-57.1-127.2-127.2S205.8 65.9 275.9 65.9 403.2 123 403.2 193.1s-57.1 127.3-127.3 127.3z m0-169.7c-23.4 0-42.4 19-42.4 42.4s19 42.4 42.4 42.4 42.4-19 42.4-42.4-19-42.4-42.4-42.4z" fill="#7BF2FC" p-id="14720"></path><path d="M191.1 532.4c-70.2 0-127.2-57.1-127.2-127.2S120.9 278 191.1 278s127.3 57 127.3 127.2-57.1 127.2-127.3 127.2z m0-169.6c-23.4 0-42.4 19-42.4 42.4s19 42.4 42.4 42.4 42.4-19 42.4-42.4-19-42.4-42.4-42.4z" fill="#7BF2FC" p-id="14721"></path><path d="M869.8 193.1h88.7v84.8h-88.7z" fill="#66B2F6" p-id="14722"></path></svg>